<?xml version="1.0" encoding="utf-8"?>
<!-- Generator: Adobe Illustrator 26.0.1, SVG Export Plug-In . SVG Version: 6.00 Build 0)  -->
<svg version="1.1" id="Layer_1" xmlns="http://www.w3.org/2000/svg" xmlns:xlink="http://www.w3.org/1999/xlink" x="0px" y="0px"
	 viewBox="0 0 750.3 276.4" style="enable-background:new 0 0 750.3 276.4;" xml:space="preserve">
<style type="text/css">
	.st0{fill:none;stroke:#000000;stroke-miterlimit:10;}
	.st1{fill:#FF0013;}
	.st2{fill:#282828;}
	.st3{fill:#DD0000;}
	.st4{fill:#FFCC00;}
	.st5{fill:#32ABE2;}
</style>
<image style="overflow:visible;" width="1024" height="1024" xlink:href="3B935B1B.jpg"  transform="matrix(1 0 0 1 -1568.7218 -1877.196)">
</image>
<circle class="st0" cx="-1527.1" cy="-550.1" r="15"/>
<circle class="st0" cx="-1412.5" cy="-669" r="63.4"/>
<image style="overflow:visible;" width="1024" height="1024" xlink:href="3B935B19.jpg"  transform="matrix(1 0 0 1 -115.8811 -1519.7948)">
</image>
<circle class="st0" cx="127.1" cy="-1005.9" r="39.2"/>
<circle class="st0" cx="163.7" cy="-1161.7" r="15"/>
<circle class="st0" cx="41.2" cy="-994.6" r="9.3"/>
<circle class="st0" cx="58.3" cy="-964.5" r="2.2"/>
<circle class="st0" cx="355.3" cy="-1214.7" r="63.4"/>
<path class="st0" d="M44.5-994.6l7.8,35.4c0.4,1.7-0.9,3.3-2.6,3.3H32.7c-1.7,0-3-1.6-2.6-3.3l7.8-35.4H44.5z"/>
<rect x="37.8" y="-1057.5" class="st0" width="6.6" height="56.9"/>
<rect x="249.7" y="-897.5" class="st0" width="56.9" height="6.6"/>
<path class="st0" d="M190.5-1005.9c0,35-63.4,120.1-63.4,120.1s-63.4-85-63.4-120.1c0-35,28.4-63.4,63.4-63.4
	S190.5-1040.9,190.5-1005.9z"/>
<path class="st0" d="M127.1-991.8c-3,0-6-0.8-8.7-2.4l-103.1-60.6c-5.3-3.1-8.4-8.6-8.4-14.7c0-6.1,3.1-11.6,8.4-14.7l103.1-60.6
	c2.6-1.5,5.6-2.4,8.7-2.4c3,0,6,0.8,8.7,2.4l103.1,60.6c5.3,3.1,8.4,8.6,8.4,14.7c0,6.1-3.1,11.6-8.4,14.7l-103.1,60.6
	C133.1-992.6,130.1-991.8,127.1-991.8z"/>
<path class="st0" d="M123.5-1002.8l-103.1-60.6c-4.7-2.7-4.7-9.5,0-12.2l103.1-60.6c2.2-1.3,5-1.3,7.2,0l103.1,60.6
	c4.7,2.7,4.7,9.5,0,12.2l-103.1,60.6C128.4-1001.5,125.7-1001.5,123.5-1002.8z"/>
<path class="st0" d="M62.1-1055.8c22.4-14.1,44.4-22.4,65.7-22.2c1.9,0,3.7,1.2,4.3,3.1c0.8,2.6,1.3,6-1.2,7.6
	c-4.2,2.5-20.9,2.5-55.1,13.8c-5.3,1.9-10.6,0.5-13.4-0.4C61.5-1054.3,61.4-1055.4,62.1-1055.8z"/>
<g>
	<path class="st1" d="M-1456.6,137.9l-21.8-12.8c-1.9,6-2.8,12.3-2.8,18.8c0,35,63.4,120.1,63.4,120.1s63.4-85,63.4-120.1
		c0-6.6-1-12.9-2.8-18.8l-21.8,12.8c0.3,2,0.4,4,0.4,6c0,21.7-17.5,39.2-39.2,39.2c-21.7,0-39.2-17.5-39.2-39.2
		C-1457.1,141.8-1456.9,139.8-1456.6,137.9z"/>
	<path class="st1" d="M-1311.2,86.3l-103.1,60.6c-2.2,1.3-5,1.3-7.2,0l-78.6-46.2v45.9c3.2,1.4,5.5,4.7,5.5,8.5
		c0,3.3-1.7,6.1-4.2,7.8l6.1,27.6c0.4,1.7-0.9,3.3-2.6,3.3h-16.9c-1.7,0-3-1.6-2.6-3.3l6.1-27.6c-2.5-1.7-4.2-4.5-4.2-7.8
		c0-3.8,2.3-7,5.5-8.5V96.3l-17.1-10c-4.7-2.7-4.7-9.5,0-12.2l103.1-60.6c2.2-1.3,5-1.3,7.2,0l103.1,60.6
		C-1306.5,76.8-1306.5,83.6-1311.2,86.3z M-1482.6,93.6c2.7,0.9,8.1,2.1,13.4,0.4c34.3-10.3,50.9-10.3,55.1-12.6
		c2.5-1.4,2-4.6,1.2-6.9c-0.6-1.7-2.3-2.8-4.3-2.8c-21.3-0.2-43.2,7.4-65.7,20.3C-1483.5,92.4-1483.4,93.3-1482.6,93.6z"/>
	<rect x="-1271.3" y="252.2" class="st2" width="144.6" height="7.5"/>
	<rect x="-1126.7" y="252.2" class="st3" width="144.6" height="7.5"/>
	<rect x="-982.1" y="252.2" class="st4" width="144.6" height="7.5"/>
	<g>
		<path class="st2" d="M-1260,57.5c7-6.9,16-10.3,27-10.3c12.5,0,22.1,4.1,28.9,12.4l-10.4,10c-4.7-5.5-10.5-8.2-17.7-8.2
			c-6.5,0-11.8,2.1-15.9,6.3c-4,4.2-6.1,9.7-6.1,16.4c0,6.7,2,12.2,6,16.3c4,4.1,9.2,6.2,15.7,6.2c7.2,0,13.2-2.7,18.1-8l10.2,9.7
			c-6.7,8.3-16.5,12.5-29.3,12.5c-10.9,0-19.8-3.4-26.7-10.2c-6.9-6.8-10.3-15.7-10.3-26.5C-1270.5,73.2-1267,64.3-1260,57.5z"/>
		<path class="st2" d="M-1190.3,73.1c5.5-5.2,12.5-7.8,21.2-7.8c8.6,0,15.7,2.6,21.2,7.8c5.5,5.2,8.3,11.9,8.3,19.9
			c0,8.1-2.8,14.7-8.2,19.9c-5.6,5.2-12.6,7.9-21.2,7.9c-8.6,0-15.7-2.6-21.2-7.8c-5.5-5.2-8.3-11.9-8.3-19.9
			C-1198.7,85-1195.9,78.3-1190.3,73.1z M-1182.9,93.1c0,4.2,1.3,7.7,3.9,10.4c2.6,2.8,5.9,4.1,9.9,4.1c3.9,0,7.2-1.4,9.8-4.1
			c2.6-2.7,3.9-6.2,3.9-10.4c0-4.2-1.3-7.7-3.8-10.4c-2.6-2.7-5.8-4.1-9.8-4.1c-4,0-7.3,1.4-9.9,4.1
			C-1181.7,85.4-1182.9,88.9-1182.9,93.1z"/>
		<path class="st2" d="M-1115.1,66.1v7.4c4.1-5.4,10.1-8.2,17.8-8.2c6.7,0,12,2.2,16,6.6c3.9,4.4,5.9,10.4,5.9,17.9v30.2h-15.7V92.5
			c0-4.4-0.9-7.8-2.8-10.1c-1.9-2.3-4.6-3.5-8.2-3.5c-3.9,0-6.9,1.2-9,3.5c-2.1,2.4-3.2,5.7-3.2,10v27.6h-15.6V66.1H-1115.1z"/>
		<path class="st2" d="M-1048.8,66.1v7.4c4.1-5.4,10.1-8.2,17.8-8.2c6.7,0,12,2.2,16,6.6c3.9,4.4,5.9,10.4,5.9,17.9v30.2h-15.7V92.5
			c0-4.4-0.9-7.8-2.8-10.1c-1.9-2.3-4.6-3.5-8.2-3.5c-3.9,0-6.9,1.2-9,3.5c-2.1,2.4-3.2,5.7-3.2,10v27.6h-15.6V66.1H-1048.8z"/>
		<path class="st2" d="M-992.6,73c5.3-5.1,12.2-7.7,20.7-7.7c8.4,0,15.2,2.6,20.4,7.8c5.2,5.2,7.8,11.9,7.8,20.2
			c0,1.5-0.1,2.9-0.3,4.3h-40.8c0.7,3.4,2.4,6.1,5,8.1c2.7,1.9,6,2.9,9.9,2.9c6,0,11.1-1.9,15.2-5.6l7.4,9.6
			c-6,5.6-13.8,8.3-23.7,8.3c-9,0-16.2-2.5-21.5-7.5c-5.4-5-8.1-11.8-8.1-20.2C-1000.5,84.9-997.9,78.2-992.6,73z M-958.5,88.3
			c-0.5-3.4-2-6.1-4.4-8.2c-2.4-2-5.4-3-8.9-3c-3.6,0-6.5,1-8.9,3c-2.4,2-3.8,4.7-4.3,8.2H-958.5z"/>
		<path class="st2" d="M-929.7,73c5.4-5.1,12.5-7.7,21.2-7.7c5.7,0,10.7,1.2,15,3.6c4.3,2.4,7.6,5.8,9.8,10.1l-11.7,7.1
			c-3-5-7.3-7.6-12.8-7.6c-4.1,0-7.4,1.3-9.9,4c-2.6,2.7-3.8,6.2-3.8,10.6c0,4.4,1.3,7.9,3.8,10.6c2.5,2.7,5.8,4,9.7,4
			c5.7,0,10.1-2.5,13.1-7.5l11.7,6.9c-2,4.3-5.2,7.7-9.7,10.1c-4.4,2.4-9.7,3.6-15.7,3.6c-8.4,0-15.3-2.6-20.7-7.7
			c-5.4-5.1-8.1-11.8-8.1-20C-937.9,84.8-935.1,78.1-929.7,73z"/>
		<path class="st2" d="M-870.1,66.1V53.6l15.6-1.4v13.9h16.2v11.3h-16.2v24.5c0,2.3,0.6,4,1.8,5c1.2,1,3.2,1.6,6,1.6
			c2.8,0,5.6-0.4,8.3-1.2V119c-3.9,1.2-7.9,1.8-12.1,1.8c-13.1,0-19.7-6.1-19.7-18.2V77.4h-8.3V66.1H-870.1z"/>
		<path class="st2" d="M-1270.5,181.1c0-11.1,3.5-20,10.5-26.7c7-6.8,16.1-10.1,27.5-10.1c12.7,0,22.5,4,29.4,12l-10.4,9.7
			c-4.7-5.3-10.7-8-18.1-8c-6.8,0-12.2,2.1-16.3,6.2c-4.1,4.1-6.1,9.8-6.1,16.9c0,6.9,2,12.5,6.1,16.6c4.1,4.2,9.4,6.3,16.1,6.3
			c5,0,9.4-0.8,13-2.4v-14.4h-20.9v-12h35.3V210c-7.7,5.2-17.2,7.9-28.4,7.9c-11.2,0-20.3-3.4-27.2-10.2
			C-1267,200.8-1270.5,192-1270.5,181.1z"/>
		<path class="st2" d="M-1186.7,170c5.3-5.1,12.2-7.7,20.7-7.7c8.4,0,15.2,2.6,20.4,7.8c5.2,5.2,7.8,11.9,7.8,20.2
			c0,1.5-0.1,2.9-0.3,4.3h-40.8c0.7,3.4,2.4,6.1,5,8.1s6,2.9,9.9,2.9c6,0,11.1-1.9,15.2-5.6l7.4,9.6c-6,5.6-13.8,8.3-23.7,8.3
			c-9,0-16.2-2.5-21.5-7.5c-5.4-5-8.1-11.8-8.1-20.2C-1194.7,181.9-1192,175.2-1186.7,170z M-1152.7,185.3c-0.5-3.4-2-6.1-4.4-8.2
			c-2.4-2-5.4-3-8.9-3c-3.6,0-6.5,1-8.9,3c-2.4,2-3.8,4.7-4.3,8.2H-1152.7z"/>
		<path class="st2" d="M-1113.9,163.2v9c3.5-6.6,9.7-9.9,18.5-9.9v14.3h-3.2c-5,0-8.7,1.2-11.1,3.7c-2.4,2.5-3.6,6.2-3.6,11.4v25.4
			h-15.6v-53.9H-1113.9z"/>
		<path class="st2" d="M-1071.5,163.1v7.2c4-5.3,9.7-8,17.1-8c7.7,0,13.5,3,17.3,8.9c4.7-6,11.2-8.9,19.6-8.9
			c6.9,0,12.3,2.2,16.3,6.6c4,4.4,6,10.4,6,17.9v30.2h-15.6v-27.6c0-4.4-0.9-7.8-2.7-10.1c-1.8-2.3-4.4-3.5-7.7-3.5
			c-3.8,0-6.6,1.2-8.7,3.5c-2,2.4-3.1,5.7-3.1,10v27.6h-15.7v-27.6c0-4.4-0.9-7.8-2.7-10.1c-1.8-2.3-4.4-3.5-7.9-3.5
			c-3.7,0-6.5,1.2-8.5,3.5c-2,2.4-3,5.7-3,10v27.6h-15.6v-53.9H-1071.5z"/>
		<path class="st2" d="M-985.9,202.4c0-7.1,3.2-11.8,9.7-14.1c4.2-1.4,11-2.7,20.4-3.7c2.1-0.2,3.6-0.5,4.3-1.1
			c0.7-0.5,1.1-1.4,1.1-2.6c0-1.9-0.8-3.5-2.4-4.6c-1.6-1.1-3.8-1.6-6.5-1.6c-5.2,0-9.3,2.2-12.1,6.7l-10.5-6.9
			c2.2-3.8,5.3-6.8,9.4-9c4.1-2.2,8.7-3.3,13.8-3.3c7.7,0,13.6,2,17.8,6c4.2,4,6.3,9.7,6.3,17.1v31.6h-14.7v-6.8
			c-3.1,5-8.8,7.6-17.1,7.6c-6.2,0-11-1.4-14.4-4.1C-984.2,211-985.9,207.2-985.9,202.4z M-962.4,207.3c8,0,12-4.3,12-13v-1.6
			c-1.2,0.2-3.2,0.5-5.8,0.8c-2.6,0.3-4.5,0.6-5.8,0.8c-2.7,0.3-4.5,0.8-5.6,1.5c-2.1,1.1-3.1,2.9-3.1,5.5
			C-970.7,205.2-967.9,207.3-962.4,207.3z"/>
		<path class="st2" d="M-907.9,163.1v7.4c4.1-5.4,10.1-8.2,17.8-8.2c6.7,0,12,2.2,16,6.6c3.9,4.4,5.9,10.4,5.9,17.9v30.2H-884v-27.6
			c0-4.4-0.9-7.8-2.8-10.1c-1.9-2.3-4.6-3.5-8.2-3.5c-3.9,0-6.9,1.2-9,3.5c-2.1,2.4-3.2,5.7-3.2,10v27.6h-15.6v-53.9H-907.9z"/>
		<path class="st2" d="M-864.3,222.4c3.7,1.7,7.7,2.5,11.9,2.5c5.2,0,8.9-2.3,11.1-6.8l0.1-0.1l-23.1-54.9h16.4l14.7,40.5l15.1-40.5
			h15.2l-23.3,55.2c-2.9,7-6.2,11.9-9.8,14.7c-3.7,2.8-8.4,4.2-14.2,4.2c-5.4,0-10.1-0.9-14.2-2.7V222.4z"/>
	</g>
</g>
<g>
	<path class="st4" d="M-686.3,137.9l-21.8-12.8c-1.9,6-2.8,12.3-2.8,18.8c0,35,63.4,120.1,63.4,120.1s63.4-85,63.4-120.1
		c0-6.6-1-12.9-2.8-18.8l-21.8,12.8c0.3,2,0.5,4,0.5,6c0,21.7-17.5,39.2-39.2,39.2c-21.6,0-39.2-17.5-39.2-39.2
		C-686.8,141.8-686.6,139.8-686.3,137.9z"/>
	<path class="st4" d="M-540.9,86.3L-644,146.9c-2.2,1.3-5,1.3-7.2,0l-78.6-46.2v45.9c3.2,1.4,5.5,4.7,5.5,8.5c0,3.3-1.7,6.1-4.2,7.8
		l6.1,27.6c0.4,1.7-0.9,3.3-2.6,3.3H-742c-1.7,0-3-1.6-2.6-3.3l6.1-27.6c-2.5-1.7-4.2-4.5-4.2-7.8c0-3.8,2.3-7,5.5-8.5V96.3
		l-17.1-10c-4.7-2.7-4.7-9.5,0-12.2l103.1-60.6c2.2-1.3,5-1.3,7.2,0l103.1,60.6C-536.2,76.8-536.2,83.6-540.9,86.3z M-712.3,93.6
		c2.7,0.9,8.1,2.1,13.4,0.4c34.3-10.3,50.9-10.3,55.1-12.6c2.5-1.4,2-4.6,1.2-6.9c-0.6-1.7-2.3-2.8-4.3-2.8
		c-21.3-0.2-43.2,7.4-65.7,20.3C-713.2,92.4-713.1,93.3-712.3,93.6z"/>
	<rect x="-501" y="252.2" class="st2" width="144.6" height="7.5"/>
	<rect x="-356.4" y="252.2" class="st3" width="144.6" height="7.5"/>
	<rect x="-211.8" y="252.2" class="st4" width="144.6" height="7.5"/>
	<g>
		<path class="st2" d="M-489.7,57.5c7-6.9,16-10.3,27-10.3c12.5,0,22.1,4.1,28.9,12.4l-10.4,10c-4.7-5.5-10.5-8.2-17.7-8.2
			c-6.5,0-11.8,2.1-15.9,6.3c-4,4.2-6.1,9.7-6.1,16.4c0,6.7,2,12.2,6,16.3c4,4.1,9.2,6.2,15.7,6.2c7.2,0,13.2-2.7,18.1-8l10.2,9.7
			c-6.7,8.3-16.5,12.5-29.3,12.5c-10.9,0-19.8-3.4-26.7-10.2c-6.9-6.8-10.3-15.7-10.3-26.5C-500.2,73.2-496.7,64.3-489.7,57.5z"/>
		<path class="st2" d="M-420,73.1c5.5-5.2,12.5-7.8,21.2-7.8c8.6,0,15.7,2.6,21.2,7.8c5.5,5.2,8.3,11.9,8.3,19.9
			c0,8.1-2.8,14.7-8.2,19.9c-5.6,5.2-12.6,7.9-21.2,7.9c-8.6,0-15.7-2.6-21.2-7.8c-5.5-5.2-8.3-11.9-8.3-19.9
			C-428.4,85-425.6,78.3-420,73.1z M-412.7,93.1c0,4.2,1.3,7.7,3.9,10.4c2.6,2.8,5.9,4.1,9.9,4.1c3.9,0,7.2-1.4,9.8-4.1
			c2.6-2.7,3.9-6.2,3.9-10.4c0-4.2-1.3-7.7-3.8-10.4c-2.6-2.7-5.8-4.1-9.8-4.1c-4,0-7.3,1.4-9.9,4.1
			C-411.4,85.4-412.7,88.9-412.7,93.1z"/>
		<path class="st2" d="M-344.8,66.1v7.4c4.1-5.4,10.1-8.2,17.8-8.2c6.7,0,12,2.2,16,6.6c3.9,4.4,5.9,10.4,5.9,17.9v30.2H-321V92.5
			c0-4.4-0.9-7.8-2.8-10.1c-1.9-2.3-4.6-3.5-8.2-3.5c-3.9,0-6.9,1.2-9,3.5c-2.1,2.4-3.2,5.7-3.2,10v27.6h-15.6V66.1H-344.8z"/>
		<path class="st2" d="M-278.5,66.1v7.4c4.1-5.4,10.1-8.2,17.8-8.2c6.7,0,12,2.2,16,6.6c3.9,4.4,5.9,10.4,5.9,17.9v30.2h-15.7V92.5
			c0-4.4-0.9-7.8-2.8-10.1c-1.9-2.3-4.6-3.5-8.2-3.5c-3.9,0-6.9,1.2-9,3.5c-2.1,2.4-3.2,5.7-3.2,10v27.6h-15.6V66.1H-278.5z"/>
		<path class="st2" d="M-222.3,73c5.3-5.1,12.2-7.7,20.7-7.7c8.4,0,15.2,2.6,20.4,7.8c5.2,5.2,7.8,11.9,7.8,20.2
			c0,1.5-0.1,2.9-0.3,4.3h-40.8c0.7,3.4,2.4,6.1,5,8.1c2.7,1.9,6,2.9,9.9,2.9c6,0,11.1-1.9,15.2-5.6l7.4,9.6
			c-6,5.6-13.8,8.3-23.7,8.3c-9,0-16.2-2.5-21.5-7.5c-5.4-5-8.1-11.8-8.1-20.2C-230.2,84.9-227.6,78.2-222.3,73z M-188.2,88.3
			c-0.5-3.4-2-6.1-4.4-8.2c-2.4-2-5.4-3-8.9-3c-3.6,0-6.5,1-8.9,3c-2.4,2-3.8,4.7-4.3,8.2H-188.2z"/>
		<path class="st2" d="M-159.4,73c5.4-5.1,12.5-7.7,21.2-7.7c5.7,0,10.7,1.2,15,3.6c4.3,2.4,7.6,5.8,9.8,10.1l-11.7,7.1
			c-3-5-7.3-7.6-12.8-7.6c-4.1,0-7.4,1.3-9.9,4c-2.6,2.7-3.8,6.2-3.8,10.6c0,4.4,1.3,7.9,3.8,10.6c2.5,2.7,5.8,4,9.7,4
			c5.7,0,10.1-2.5,13.1-7.5l11.7,6.9c-2,4.3-5.2,7.7-9.7,10.1c-4.4,2.4-9.7,3.6-15.7,3.6c-8.4,0-15.3-2.6-20.7-7.7
			c-5.4-5.1-8.1-11.8-8.1-20C-167.6,84.8-164.8,78.1-159.4,73z"/>
		<path class="st2" d="M-99.8,66.1V53.6l15.6-1.4v13.9H-68v11.3h-16.2v24.5c0,2.3,0.6,4,1.8,5c1.2,1,3.2,1.6,6,1.6
			c2.8,0,5.6-0.4,8.3-1.2V119c-3.9,1.2-7.9,1.8-12.1,1.8c-13.1,0-19.7-6.1-19.7-18.2V77.4h-8.3V66.1H-99.8z"/>
		<path class="st2" d="M-500.2,181.1c0-11.1,3.5-20,10.5-26.7c7-6.8,16.1-10.1,27.5-10.1c12.7,0,22.5,4,29.4,12l-10.4,9.7
			c-4.7-5.3-10.7-8-18.1-8c-6.8,0-12.2,2.1-16.3,6.2c-4.1,4.1-6.1,9.8-6.1,16.9c0,6.9,2,12.5,6.1,16.6c4.1,4.2,9.4,6.3,16.1,6.3
			c5,0,9.4-0.8,13-2.4v-14.4h-20.9v-12h35.3V210c-7.7,5.2-17.2,7.9-28.4,7.9c-11.2,0-20.3-3.4-27.2-10.2
			C-496.7,200.8-500.2,192-500.2,181.1z"/>
		<path class="st2" d="M-416.4,170c5.3-5.1,12.2-7.7,20.7-7.7c8.4,0,15.2,2.6,20.4,7.8c5.2,5.2,7.8,11.9,7.8,20.2
			c0,1.5-0.1,2.9-0.3,4.3h-40.8c0.7,3.4,2.4,6.1,5,8.1s6,2.9,9.9,2.9c6,0,11.1-1.9,15.2-5.6l7.4,9.6c-6,5.6-13.8,8.3-23.7,8.3
			c-9,0-16.2-2.5-21.5-7.5c-5.4-5-8.1-11.8-8.1-20.2C-424.4,181.9-421.7,175.2-416.4,170z M-382.4,185.3c-0.5-3.4-2-6.1-4.4-8.2
			c-2.4-2-5.4-3-8.9-3c-3.6,0-6.5,1-8.9,3c-2.4,2-3.8,4.7-4.3,8.2H-382.4z"/>
		<path class="st2" d="M-343.6,163.2v9c3.5-6.6,9.7-9.9,18.5-9.9v14.3h-3.2c-5,0-8.7,1.2-11.1,3.7c-2.4,2.5-3.6,6.2-3.6,11.4v25.4
			h-15.6v-53.9H-343.6z"/>
		<path class="st2" d="M-301.2,163.1v7.2c4-5.3,9.7-8,17.1-8c7.7,0,13.5,3,17.3,8.9c4.7-6,11.2-8.9,19.6-8.9
			c6.9,0,12.3,2.2,16.3,6.6c4,4.4,6,10.4,6,17.9v30.2h-15.6v-27.6c0-4.4-0.9-7.8-2.7-10.1c-1.8-2.3-4.4-3.5-7.7-3.5
			c-3.8,0-6.6,1.2-8.7,3.5c-2,2.4-3.1,5.7-3.1,10v27.6h-15.7v-27.6c0-4.4-0.9-7.8-2.7-10.1c-1.8-2.3-4.4-3.5-7.9-3.5
			c-3.7,0-6.5,1.2-8.5,3.5c-2,2.4-3,5.7-3,10v27.6h-15.6v-53.9H-301.2z"/>
		<path class="st2" d="M-215.6,202.4c0-7.1,3.2-11.8,9.7-14.1c4.2-1.4,11-2.7,20.4-3.7c2.1-0.2,3.6-0.5,4.3-1.1
			c0.7-0.5,1.1-1.4,1.1-2.6c0-1.9-0.8-3.5-2.4-4.6c-1.6-1.1-3.8-1.6-6.5-1.6c-5.2,0-9.3,2.2-12.1,6.7l-10.5-6.9
			c2.2-3.8,5.3-6.8,9.4-9c4.1-2.2,8.7-3.3,13.8-3.3c7.7,0,13.6,2,17.8,6c4.2,4,6.3,9.7,6.3,17.1v31.6h-14.7v-6.8
			c-3.1,5-8.8,7.6-17.1,7.6c-6.2,0-11-1.4-14.4-4.1C-213.9,211-215.6,207.2-215.6,202.4z M-192.1,207.3c8,0,12-4.3,12-13v-1.6
			c-1.2,0.2-3.2,0.5-5.8,0.8c-2.6,0.3-4.5,0.6-5.8,0.8c-2.7,0.3-4.5,0.8-5.6,1.5c-2.1,1.1-3.1,2.9-3.1,5.5
			C-200.4,205.2-197.6,207.3-192.1,207.3z"/>
		<path class="st2" d="M-137.6,163.1v7.4c4.1-5.4,10.1-8.2,17.8-8.2c6.7,0,12,2.2,16,6.6c3.9,4.4,5.9,10.4,5.9,17.9v30.2h-15.7
			v-27.6c0-4.4-0.9-7.8-2.8-10.1c-1.9-2.3-4.6-3.5-8.2-3.5c-3.9,0-6.9,1.2-9,3.5c-2.1,2.4-3.2,5.7-3.2,10v27.6h-15.6v-53.9H-137.6z"
			/>
		<path class="st2" d="M-94,222.4c3.7,1.7,7.7,2.5,11.9,2.5c5.2,0,8.9-2.3,11.1-6.8l0.1-0.1L-94,163.1h16.4l14.7,40.5l15.1-40.5
			h15.2l-23.3,55.2c-2.9,7-6.2,11.9-9.8,14.7c-3.7,2.8-8.4,4.2-14.2,4.2c-5.4,0-10.1-0.9-14.2-2.7V222.4z"/>
	</g>
</g>
<g>
	<path class="st5" d="M84,137.9L62.1,125c-1.9,6-2.8,12.3-2.8,18.8c0,35,63.4,120.1,63.4,120.1s63.4-85,63.4-120.1
		c0-6.6-1-12.9-2.8-18.8l-21.8,12.8c0.3,2,0.5,4,0.5,6c0,21.7-17.5,39.2-39.2,39.2c-21.6,0-39.2-17.5-39.2-39.2
		C83.5,141.8,83.7,139.8,84,137.9z"/>
	<path class="st5" d="M229.4,86.3l-103.1,60.6c-2.2,1.3-5,1.3-7.2,0l-78.6-46.2v45.9c3.2,1.4,5.5,4.7,5.5,8.5c0,3.3-1.7,6.1-4.2,7.8
		l6.1,27.6c0.4,1.7-0.9,3.3-2.6,3.3H28.3c-1.7,0-3-1.6-2.6-3.3l6.1-27.6c-2.5-1.7-4.2-4.5-4.2-7.8c0-3.8,2.3-7,5.5-8.5V96.3L16,86.3
		c-4.7-2.7-4.7-9.5,0-12.2l103.1-60.6c2.2-1.3,5-1.3,7.2,0l103.1,60.6C234.1,76.8,234.1,83.6,229.4,86.3z M57.9,93.6
		c2.7,0.9,8.1,2.1,13.4,0.4c34.3-10.3,50.9-10.3,55.1-12.6c2.5-1.4,2-4.6,1.2-6.9c-0.6-1.7-2.3-2.8-4.3-2.8
		c-21.3-0.2-43.2,7.4-65.7,20.3C57.1,92.4,57.2,93.3,57.9,93.6z"/>
	<rect x="269.3" y="252.2" class="st2" width="144.6" height="7.5"/>
	<rect x="413.9" y="252.2" class="st3" width="144.6" height="7.5"/>
	<rect x="558.5" y="252.2" class="st4" width="144.6" height="7.5"/>
	<g>
		<path class="st2" d="M280.6,57.5c7-6.9,16-10.3,27-10.3c12.5,0,22.1,4.1,28.9,12.4l-10.4,10c-4.7-5.5-10.5-8.2-17.7-8.2
			c-6.5,0-11.8,2.1-15.9,6.3c-4,4.2-6.1,9.7-6.1,16.4c0,6.7,2,12.2,6,16.3c4,4.1,9.2,6.2,15.7,6.2c7.2,0,13.2-2.7,18.1-8l10.2,9.7
			c-6.7,8.3-16.5,12.5-29.3,12.5c-10.9,0-19.8-3.4-26.7-10.2c-6.9-6.8-10.3-15.7-10.3-26.5C270.1,73.2,273.6,64.3,280.6,57.5z"/>
		<path class="st2" d="M350.3,73.1c5.5-5.2,12.5-7.8,21.2-7.8c8.6,0,15.7,2.6,21.2,7.8c5.5,5.2,8.3,11.9,8.3,19.9
			c0,8.1-2.8,14.7-8.2,19.9c-5.6,5.2-12.6,7.9-21.2,7.9c-8.6,0-15.7-2.6-21.2-7.8c-5.5-5.2-8.3-11.9-8.3-19.9
			C341.9,85,344.7,78.3,350.3,73.1z M357.6,93.1c0,4.2,1.3,7.7,3.9,10.4c2.6,2.8,5.9,4.1,9.9,4.1c3.9,0,7.2-1.4,9.8-4.1
			c2.6-2.7,3.9-6.2,3.9-10.4c0-4.2-1.3-7.7-3.8-10.4c-2.6-2.7-5.8-4.1-9.8-4.1c-4,0-7.3,1.4-9.9,4.1
			C358.9,85.4,357.6,88.9,357.6,93.1z"/>
		<path class="st2" d="M425.5,66.1v7.4c4.1-5.4,10.1-8.2,17.8-8.2c6.7,0,12,2.2,16,6.6c3.9,4.4,5.9,10.4,5.9,17.9v30.2h-15.7V92.5
			c0-4.4-0.9-7.8-2.8-10.1c-1.9-2.3-4.6-3.5-8.2-3.5c-3.9,0-6.9,1.2-9,3.5c-2.1,2.4-3.2,5.7-3.2,10v27.6h-15.6V66.1H425.5z"/>
		<path class="st2" d="M491.8,66.1v7.4c4.1-5.4,10.1-8.2,17.8-8.2c6.7,0,12,2.2,16,6.6c3.9,4.4,5.9,10.4,5.9,17.9v30.2h-15.7V92.5
			c0-4.4-0.9-7.8-2.8-10.1c-1.9-2.3-4.6-3.5-8.2-3.5c-3.9,0-6.9,1.2-9,3.5c-2.1,2.4-3.2,5.7-3.2,10v27.6h-15.6V66.1H491.8z"/>
		<path class="st2" d="M548,73c5.3-5.1,12.2-7.7,20.7-7.7c8.4,0,15.2,2.6,20.4,7.8c5.2,5.2,7.8,11.9,7.8,20.2c0,1.5-0.1,2.9-0.3,4.3
			h-40.8c0.7,3.4,2.4,6.1,5,8.1c2.7,1.9,6,2.9,9.9,2.9c6,0,11.1-1.9,15.2-5.6l7.4,9.6c-6,5.6-13.8,8.3-23.7,8.3
			c-9,0-16.2-2.5-21.5-7.5c-5.4-5-8.1-11.8-8.1-20.2C540.1,84.9,542.7,78.2,548,73z M582.1,88.3c-0.5-3.4-2-6.1-4.4-8.2
			c-2.4-2-5.4-3-8.9-3c-3.6,0-6.5,1-8.9,3c-2.4,2-3.8,4.7-4.3,8.2H582.1z"/>
		<path class="st2" d="M610.9,73c5.4-5.1,12.5-7.7,21.2-7.7c5.7,0,10.7,1.2,15,3.6c4.3,2.4,7.6,5.8,9.8,10.1l-11.7,7.1
			c-3-5-7.3-7.6-12.8-7.6c-4.1,0-7.4,1.3-9.9,4c-2.6,2.7-3.8,6.2-3.8,10.6c0,4.4,1.3,7.9,3.8,10.6c2.5,2.7,5.8,4,9.7,4
			c5.7,0,10.1-2.5,13.1-7.5l11.7,6.9c-2,4.3-5.2,7.7-9.7,10.1c-4.4,2.4-9.7,3.6-15.7,3.6c-8.4,0-15.3-2.6-20.7-7.7
			c-5.4-5.1-8.1-11.8-8.1-20C602.7,84.8,605.5,78.1,610.9,73z"/>
		<path class="st2" d="M670.5,66.1V53.6l15.6-1.4v13.9h16.2v11.3h-16.2v24.5c0,2.3,0.6,4,1.8,5c1.2,1,3.2,1.6,6,1.6
			c2.8,0,5.6-0.4,8.3-1.2V119c-3.9,1.2-7.9,1.8-12.1,1.8c-13.1,0-19.7-6.1-19.7-18.2V77.4h-8.3V66.1H670.5z"/>
		<path class="st2" d="M270.1,181.1c0-11.1,3.5-20,10.5-26.7c7-6.8,16.1-10.1,27.5-10.1c12.7,0,22.5,4,29.4,12l-10.4,9.7
			c-4.7-5.3-10.7-8-18.1-8c-6.8,0-12.2,2.1-16.3,6.2c-4.1,4.1-6.1,9.8-6.1,16.9c0,6.9,2,12.5,6.1,16.6c4.1,4.2,9.4,6.3,16.1,6.3
			c5,0,9.4-0.8,13-2.4v-14.4h-20.9v-12h35.3V210c-7.7,5.2-17.2,7.9-28.4,7.9c-11.2,0-20.3-3.4-27.2-10.2
			C273.6,200.8,270.1,192,270.1,181.1z"/>
		<path class="st2" d="M353.9,170c5.3-5.1,12.2-7.7,20.7-7.7c8.4,0,15.2,2.6,20.4,7.8c5.2,5.2,7.8,11.9,7.8,20.2
			c0,1.5-0.1,2.9-0.3,4.3h-40.8c0.7,3.4,2.4,6.1,5,8.1s6,2.9,9.9,2.9c6,0,11.1-1.9,15.2-5.6l7.4,9.6c-6,5.6-13.8,8.3-23.7,8.3
			c-9,0-16.2-2.5-21.5-7.5c-5.4-5-8.1-11.8-8.1-20.2C345.9,181.9,348.6,175.2,353.9,170z M387.9,185.3c-0.5-3.4-2-6.1-4.4-8.2
			c-2.4-2-5.4-3-8.9-3c-3.6,0-6.5,1-8.9,3c-2.4,2-3.8,4.7-4.3,8.2H387.9z"/>
		<path class="st2" d="M426.7,163.2v9c3.5-6.6,9.7-9.9,18.5-9.9v14.3h-3.2c-5,0-8.7,1.2-11.1,3.7c-2.4,2.5-3.6,6.2-3.6,11.4v25.4
			h-15.6v-53.9H426.7z"/>
		<path class="st2" d="M469.1,163.1v7.2c4-5.3,9.7-8,17.1-8c7.7,0,13.5,3,17.3,8.9c4.7-6,11.2-8.9,19.6-8.9c6.9,0,12.3,2.2,16.3,6.6
			c4,4.4,6,10.4,6,17.9v30.2h-15.6v-27.6c0-4.4-0.9-7.8-2.7-10.1c-1.8-2.3-4.4-3.5-7.7-3.5c-3.8,0-6.6,1.2-8.7,3.5
			c-2,2.4-3.1,5.7-3.1,10v27.6h-15.7v-27.6c0-4.4-0.9-7.8-2.7-10.1c-1.8-2.3-4.4-3.5-7.9-3.5c-3.7,0-6.5,1.2-8.5,3.5
			c-2,2.4-3,5.7-3,10v27.6h-15.6v-53.9H469.1z"/>
		<path class="st2" d="M554.7,202.4c0-7.1,3.2-11.8,9.7-14.1c4.2-1.4,11-2.7,20.4-3.7c2.1-0.2,3.6-0.5,4.3-1.1
			c0.7-0.5,1.1-1.4,1.1-2.6c0-1.9-0.8-3.5-2.4-4.6c-1.6-1.1-3.8-1.6-6.5-1.6c-5.2,0-9.3,2.2-12.1,6.7l-10.5-6.9
			c2.2-3.8,5.3-6.8,9.4-9c4.1-2.2,8.7-3.3,13.8-3.3c7.7,0,13.6,2,17.8,6c4.2,4,6.3,9.7,6.3,17.1v31.6h-14.7v-6.8
			c-3.1,5-8.8,7.6-17.1,7.6c-6.2,0-11-1.4-14.4-4.1C556.4,211,554.7,207.2,554.7,202.4z M578.2,207.3c8,0,12-4.3,12-13v-1.6
			c-1.2,0.2-3.2,0.5-5.8,0.8c-2.6,0.3-4.5,0.6-5.8,0.8c-2.7,0.3-4.5,0.8-5.6,1.5c-2.1,1.1-3.1,2.9-3.1,5.5
			C569.9,205.2,572.7,207.3,578.2,207.3z"/>
		<path class="st2" d="M632.7,163.1v7.4c4.1-5.4,10.1-8.2,17.8-8.2c6.7,0,12,2.2,16,6.6c3.9,4.4,5.9,10.4,5.9,17.9v30.2h-15.7v-27.6
			c0-4.4-0.9-7.8-2.8-10.1c-1.9-2.3-4.6-3.5-8.2-3.5c-3.9,0-6.9,1.2-9,3.5c-2.1,2.4-3.2,5.7-3.2,10v27.6h-15.6v-53.9H632.7z"/>
		<path class="st2" d="M676.3,222.4c3.7,1.7,7.7,2.5,11.9,2.5c5.2,0,8.9-2.3,11.1-6.8l0.1-0.1l-23.1-54.9h16.4l14.7,40.5l15.1-40.5
			h15.2l-23.3,55.2c-2.9,7-6.2,11.9-9.8,14.7c-3.7,2.8-8.4,4.2-14.2,4.2c-5.4,0-10.1-0.9-14.2-2.7V222.4z"/>
	</g>
</g>
<text transform="matrix(1 0 0 1 -1174.734 -600.0159)"><tspan x="0" y="0" class="st2" style="font-family:'Shoika-SemiBold'; font-size:97.0276px;">Connect</tspan><tspan x="0" y="97" class="st2" style="font-family:'Shoika-SemiBold'; font-size:97.0276px;">Germany</tspan></text>
<g>
	<path class="st1" d="M1106.7,137.9l-21.8-12.8c-1.9,6-2.8,12.3-2.8,18.8c0,35,63.4,120.1,63.4,120.1s63.4-85,63.4-120.1
		c0-6.6-1-12.9-2.8-18.8l-21.8,12.8c0.3,2,0.4,4,0.4,6c0,21.7-17.5,39.2-39.2,39.2c-21.7,0-39.2-17.5-39.2-39.2
		C1106.2,141.8,1106.4,139.8,1106.7,137.9z"/>
	<path class="st1" d="M1252.2,86.3L1149,146.9c-2.2,1.3-5,1.3-7.2,0l-78.6-46.2v45.9c3.2,1.4,5.5,4.7,5.5,8.5c0,3.3-1.7,6.1-4.2,7.8
		l6.1,27.6c0.4,1.7-0.9,3.3-2.6,3.3h-16.9c-1.7,0-3-1.6-2.6-3.3l6.1-27.6c-2.5-1.7-4.2-4.5-4.2-7.8c0-3.8,2.3-7,5.5-8.5V96.3
		l-17.1-10c-4.7-2.7-4.7-9.5,0-12.2l103.1-60.6c2.2-1.3,5-1.3,7.2,0l103.1,60.6C1256.8,76.8,1256.8,83.6,1252.2,86.3z M1080.7,93.6
		c2.7,0.9,8.1,2.1,13.4,0.4c34.3-10.3,50.9-10.3,55.1-12.6c2.5-1.4,2-4.6,1.2-6.9c-0.6-1.7-2.3-2.8-4.3-2.8
		c-21.3-0.2-43.2,7.4-65.7,20.3C1079.8,92.4,1079.9,93.3,1080.7,93.6z"/>
</g>
</svg>
