<?xml version="1.0" encoding="utf-8"?>
<!-- Generator: Adobe Illustrator 26.0.1, SVG Export Plug-In . SVG Version: 6.00 Build 0)  -->
<svg version="1.1" id="Layer_1" xmlns="http://www.w3.org/2000/svg" xmlns:xlink="http://www.w3.org/1999/xlink" x="0px" y="0px"
	 viewBox="0 0 276.4 276.4" style="enable-background:new 0 0 276.4 276.4;" xml:space="preserve">
<style type="text/css">
	.st0{fill:none;stroke:#000000;stroke-miterlimit:10;}
	.st1{fill:#FF0013;}
	.st2{fill:#282828;}
	.st3{fill:#DD0000;}
	.st4{fill:#FFCC00;}
	.st5{fill:#32ABE2;}
</style>
<image style="overflow:visible;" width="1024" height="1024" xlink:href="8AEBFA2F.jpg"  transform="matrix(1 0 0 1 -2575.9519 -1877.196)">
</image>
<circle class="st0" cx="-2534.3" cy="-550.1" r="15"/>
<circle class="st0" cx="-2419.7" cy="-669" r="63.4"/>
<image style="overflow:visible;" width="1024" height="1024" xlink:href="8AEBFA2D.jpg"  transform="matrix(1 0 0 1 -1123.1111 -1519.7948)">
</image>
<circle class="st0" cx="-880.2" cy="-1005.9" r="39.2"/>
<circle class="st0" cx="-843.6" cy="-1161.7" r="15"/>
<circle class="st0" cx="-966.1" cy="-994.6" r="9.3"/>
<circle class="st0" cx="-948.9" cy="-964.5" r="2.2"/>
<circle class="st0" cx="-652" cy="-1214.7" r="63.4"/>
<path class="st0" d="M-962.7-994.6l7.8,35.4c0.4,1.7-0.9,3.3-2.6,3.3h-16.9c-1.7,0-3-1.6-2.6-3.3l7.8-35.4H-962.7z"/>
<rect x="-969.4" y="-1057.5" class="st0" width="6.6" height="56.9"/>
<rect x="-757.5" y="-897.5" class="st0" width="56.9" height="6.6"/>
<path class="st0" d="M-816.7-1005.9c0,35-63.4,120.1-63.4,120.1s-63.4-85-63.4-120.1c0-35,28.4-63.4,63.4-63.4
	C-845.1-1069.3-816.7-1040.9-816.7-1005.9z"/>
<path class="st0" d="M-880.2-991.8c-3,0-6-0.8-8.7-2.4l-103.1-60.6c-5.3-3.1-8.4-8.6-8.4-14.7c0-6.1,3.1-11.6,8.4-14.7l103.1-60.6
	c2.6-1.5,5.6-2.4,8.7-2.4c3,0,6,0.8,8.7,2.4l103.1,60.6c5.3,3.1,8.4,8.6,8.4,14.7c0,6.1-3.1,11.6-8.4,14.7l-103.1,60.6
	C-874.1-992.6-877.1-991.8-880.2-991.8z"/>
<path class="st0" d="M-883.7-1002.8l-103.1-60.6c-4.7-2.7-4.7-9.5,0-12.2l103.1-60.6c2.2-1.3,5-1.3,7.2,0l103.1,60.6
	c4.7,2.7,4.7,9.5,0,12.2l-103.1,60.6C-878.8-1001.5-881.5-1001.5-883.7-1002.8z"/>
<path class="st0" d="M-945.1-1055.8c22.4-14.1,44.4-22.4,65.7-22.2c1.9,0,3.7,1.2,4.3,3.1c0.8,2.6,1.3,6-1.2,7.6
	c-4.2,2.5-20.9,2.5-55.1,13.8c-5.3,1.9-10.6,0.5-13.4-0.4C-945.7-1054.3-945.8-1055.4-945.1-1055.8z"/>
<g>
	<path class="st1" d="M-2463.9,137.9l-21.8-12.8c-1.9,6-2.8,12.3-2.8,18.8c0,35,63.4,120.1,63.4,120.1s63.4-85,63.4-120.1
		c0-6.6-1-12.9-2.8-18.8l-21.8,12.8c0.3,2,0.4,4,0.4,6c0,21.7-17.6,39.2-39.2,39.2c-21.7,0-39.2-17.5-39.2-39.2
		C-2464.3,141.8-2464.2,139.8-2463.9,137.9z"/>
	<path class="st1" d="M-2318.4,86.3l-103.1,60.6c-2.2,1.3-5,1.3-7.2,0l-78.6-46.2v45.9c3.2,1.4,5.5,4.7,5.5,8.5
		c0,3.3-1.7,6.1-4.2,7.8l6.1,27.6c0.4,1.7-0.9,3.3-2.6,3.3h-16.9c-1.7,0-3-1.6-2.6-3.3l6.1-27.6c-2.5-1.7-4.2-4.5-4.2-7.8
		c0-3.8,2.3-7,5.5-8.5V96.3l-17.1-10c-4.7-2.7-4.7-9.5,0-12.2l103.1-60.6c2.2-1.3,5-1.3,7.2,0l103.1,60.6
		C-2313.7,76.8-2313.7,83.6-2318.4,86.3z M-2489.9,93.6c2.7,0.9,8.1,2.1,13.4,0.4c34.3-10.3,50.9-10.3,55.1-12.6
		c2.5-1.4,2-4.6,1.2-6.9c-0.6-1.7-2.3-2.8-4.3-2.8c-21.3-0.2-43.2,7.4-65.7,20.3C-2490.8,92.4-2490.6,93.3-2489.9,93.6z"/>
	<rect x="-2278.5" y="252.2" class="st2" width="144.6" height="7.5"/>
	<rect x="-2133.9" y="252.2" class="st3" width="144.6" height="7.5"/>
	<rect x="-1989.3" y="252.2" class="st4" width="144.6" height="7.5"/>
	<g>
		<path class="st2" d="M-2267.2,57.5c7-6.9,16-10.3,27-10.3c12.5,0,22.1,4.1,28.9,12.4l-10.4,10c-4.7-5.5-10.5-8.2-17.7-8.2
			c-6.5,0-11.8,2.1-15.9,6.3c-4,4.2-6.1,9.7-6.1,16.4c0,6.7,2,12.2,6,16.3c4,4.1,9.2,6.2,15.7,6.2c7.2,0,13.2-2.7,18.1-8l10.2,9.7
			c-6.7,8.3-16.5,12.5-29.3,12.5c-10.9,0-19.8-3.4-26.7-10.2c-6.9-6.8-10.3-15.7-10.3-26.5C-2277.7,73.2-2274.2,64.3-2267.2,57.5z"
			/>
		<path class="st2" d="M-2197.5,73.1c5.5-5.2,12.5-7.8,21.2-7.8c8.6,0,15.7,2.6,21.2,7.8c5.5,5.2,8.3,11.9,8.3,19.9
			c0,8.1-2.8,14.7-8.2,19.9c-5.6,5.2-12.6,7.9-21.2,7.9c-8.6,0-15.7-2.6-21.2-7.8c-5.5-5.2-8.3-11.9-8.3-19.9
			C-2205.9,85-2203.1,78.3-2197.5,73.1z M-2190.2,93.1c0,4.2,1.3,7.7,3.9,10.4c2.6,2.8,5.9,4.1,9.9,4.1c3.9,0,7.2-1.4,9.8-4.1
			c2.6-2.7,3.9-6.2,3.9-10.4c0-4.2-1.3-7.7-3.8-10.4c-2.6-2.7-5.8-4.1-9.8-4.1c-4,0-7.3,1.4-9.9,4.1
			C-2188.9,85.4-2190.2,88.9-2190.2,93.1z"/>
		<path class="st2" d="M-2122.4,66.1v7.4c4.1-5.4,10.1-8.2,17.8-8.2c6.7,0,12,2.2,16,6.6c3.9,4.4,5.9,10.4,5.9,17.9v30.2h-15.7V92.5
			c0-4.4-0.9-7.8-2.8-10.1c-1.9-2.3-4.6-3.5-8.2-3.5c-3.9,0-6.9,1.2-9,3.5c-2.1,2.4-3.2,5.7-3.2,10v27.6h-15.6V66.1H-2122.4z"/>
		<path class="st2" d="M-2056,66.1v7.4c4.1-5.4,10.1-8.2,17.8-8.2c6.7,0,12,2.2,16,6.6c3.9,4.4,5.9,10.4,5.9,17.9v30.2h-15.7V92.5
			c0-4.4-0.9-7.8-2.8-10.1c-1.9-2.3-4.6-3.5-8.2-3.5c-3.9,0-6.9,1.2-9,3.5c-2.1,2.4-3.2,5.7-3.2,10v27.6h-15.6V66.1H-2056z"/>
		<path class="st2" d="M-1999.8,73c5.3-5.1,12.2-7.7,20.7-7.7c8.4,0,15.2,2.6,20.4,7.8c5.2,5.2,7.8,11.9,7.8,20.2
			c0,1.5-0.1,2.9-0.3,4.3h-40.8c0.7,3.4,2.4,6.1,5,8.1c2.7,1.9,6,2.9,9.9,2.9c6,0,11.1-1.9,15.2-5.6l7.4,9.6
			c-6,5.6-13.8,8.3-23.7,8.3c-9,0-16.2-2.5-21.5-7.5c-5.4-5-8.1-11.8-8.1-20.2C-2007.8,84.9-2005.1,78.2-1999.8,73z M-1965.8,88.3
			c-0.5-3.4-2-6.1-4.4-8.2c-2.4-2-5.4-3-8.9-3c-3.6,0-6.5,1-8.9,3c-2.4,2-3.8,4.7-4.3,8.2H-1965.8z"/>
		<path class="st2" d="M-1936.9,73c5.4-5.1,12.5-7.7,21.2-7.7c5.7,0,10.7,1.2,15,3.6c4.3,2.4,7.6,5.8,9.8,10.1l-11.7,7.1
			c-3-5-7.3-7.6-12.8-7.6c-4.1,0-7.4,1.3-9.9,4c-2.6,2.7-3.8,6.2-3.8,10.6c0,4.4,1.3,7.9,3.8,10.6c2.5,2.7,5.8,4,9.7,4
			c5.7,0,10.1-2.5,13.1-7.5l11.7,6.9c-2,4.3-5.2,7.7-9.7,10.1c-4.4,2.4-9.7,3.6-15.7,3.6c-8.4,0-15.3-2.6-20.7-7.7
			c-5.4-5.1-8.1-11.8-8.1-20C-1945.1,84.8-1942.4,78.1-1936.9,73z"/>
		<path class="st2" d="M-1877.4,66.1V53.6l15.6-1.4v13.9h16.2v11.3h-16.2v24.5c0,2.3,0.6,4,1.8,5c1.2,1,3.2,1.6,6,1.6
			c2.8,0,5.6-0.4,8.3-1.2V119c-3.9,1.2-7.9,1.8-12.1,1.8c-13.1,0-19.7-6.1-19.7-18.2V77.4h-8.3V66.1H-1877.4z"/>
		<path class="st2" d="M-2277.7,181.1c0-11.1,3.5-20,10.5-26.7c7-6.8,16.1-10.1,27.5-10.1c12.7,0,22.5,4,29.4,12l-10.4,9.7
			c-4.7-5.3-10.7-8-18.1-8c-6.8,0-12.2,2.1-16.3,6.2c-4.1,4.1-6.1,9.8-6.1,16.9c0,6.9,2,12.5,6.1,16.6c4.1,4.2,9.4,6.3,16.1,6.3
			c5,0,9.4-0.8,13-2.4v-14.4h-20.9v-12h35.3V210c-7.7,5.2-17.2,7.9-28.4,7.9c-11.2,0-20.3-3.4-27.2-10.2
			C-2274.2,200.8-2277.7,192-2277.7,181.1z"/>
		<path class="st2" d="M-2194,170c5.3-5.1,12.2-7.7,20.7-7.7c8.4,0,15.2,2.6,20.4,7.8c5.2,5.2,7.8,11.9,7.8,20.2
			c0,1.5-0.1,2.9-0.3,4.3h-40.8c0.7,3.4,2.4,6.1,5,8.1s6,2.9,9.9,2.9c6,0,11.1-1.9,15.2-5.6l7.4,9.6c-6,5.6-13.8,8.3-23.7,8.3
			c-9,0-16.2-2.5-21.5-7.5c-5.4-5-8.1-11.8-8.1-20.2C-2201.9,181.9-2199.3,175.2-2194,170z M-2159.9,185.3c-0.5-3.4-2-6.1-4.4-8.2
			c-2.4-2-5.4-3-8.9-3c-3.6,0-6.5,1-8.9,3c-2.4,2-3.8,4.7-4.3,8.2H-2159.9z"/>
		<path class="st2" d="M-2121.1,163.2v9c3.5-6.6,9.7-9.9,18.5-9.9v14.3h-3.2c-5,0-8.7,1.2-11.1,3.7c-2.4,2.5-3.6,6.2-3.6,11.4v25.4
			h-15.6v-53.9H-2121.1z"/>
		<path class="st2" d="M-2078.7,163.1v7.2c4-5.3,9.7-8,17.1-8c7.7,0,13.5,3,17.3,8.9c4.7-6,11.2-8.9,19.6-8.9
			c6.9,0,12.3,2.2,16.3,6.6c4,4.4,6,10.4,6,17.9v30.2h-15.6v-27.6c0-4.4-0.9-7.8-2.7-10.1c-1.8-2.3-4.4-3.5-7.7-3.5
			c-3.8,0-6.6,1.2-8.7,3.5c-2,2.4-3.1,5.7-3.1,10v27.6h-15.7v-27.6c0-4.4-0.9-7.8-2.7-10.1c-1.8-2.3-4.4-3.5-7.9-3.5
			c-3.7,0-6.5,1.2-8.5,3.5c-2,2.4-3,5.7-3,10v27.6h-15.6v-53.9H-2078.7z"/>
		<path class="st2" d="M-1993.1,202.4c0-7.1,3.2-11.8,9.7-14.1c4.2-1.4,11-2.7,20.4-3.7c2.1-0.2,3.6-0.5,4.3-1.1
			c0.7-0.5,1.1-1.4,1.1-2.6c0-1.9-0.8-3.5-2.4-4.6c-1.6-1.1-3.8-1.6-6.5-1.6c-5.2,0-9.3,2.2-12.1,6.7l-10.5-6.9
			c2.2-3.8,5.3-6.8,9.4-9c4.1-2.2,8.7-3.3,13.8-3.3c7.7,0,13.6,2,17.8,6c4.2,4,6.3,9.7,6.3,17.1v31.6h-14.7v-6.8
			c-3.1,5-8.8,7.6-17.1,7.6c-6.2,0-11-1.4-14.4-4.1C-1991.4,211-1993.1,207.2-1993.1,202.4z M-1969.6,207.3c8,0,12-4.3,12-13v-1.6
			c-1.2,0.2-3.2,0.5-5.8,0.8c-2.6,0.3-4.5,0.6-5.8,0.8c-2.7,0.3-4.5,0.8-5.6,1.5c-2.1,1.1-3.1,2.9-3.1,5.5
			C-1977.9,205.2-1975.1,207.3-1969.6,207.3z"/>
		<path class="st2" d="M-1915.1,163.1v7.4c4.1-5.4,10.1-8.2,17.8-8.2c6.7,0,12,2.2,16,6.6c3.9,4.4,5.9,10.4,5.9,17.9v30.2h-15.7
			v-27.6c0-4.4-0.9-7.8-2.8-10.1c-1.9-2.3-4.6-3.5-8.2-3.5c-3.9,0-6.9,1.2-9,3.5c-2.1,2.4-3.2,5.7-3.2,10v27.6h-15.6v-53.9H-1915.1z
			"/>
		<path class="st2" d="M-1871.5,222.4c3.7,1.7,7.7,2.5,11.9,2.5c5.2,0,8.9-2.3,11.1-6.8l0.1-0.1l-23.1-54.9h16.4l14.7,40.5
			l15.1-40.5h15.2l-23.3,55.2c-2.9,7-6.2,11.9-9.8,14.7c-3.7,2.8-8.4,4.2-14.2,4.2c-5.4,0-10.1-0.9-14.2-2.7V222.4z"/>
	</g>
</g>
<g>
	<path class="st4" d="M-1693.6,137.9l-21.8-12.8c-1.8,6-2.8,12.3-2.8,18.8c0,35,63.4,120.1,63.4,120.1s63.4-85,63.4-120.1
		c0-6.6-1-12.9-2.8-18.8l-21.8,12.8c0.3,2,0.5,4,0.5,6c0,21.7-17.6,39.2-39.2,39.2c-21.6,0-39.2-17.5-39.2-39.2
		C-1694,141.8-1693.9,139.8-1693.6,137.9z"/>
	<path class="st4" d="M-1548.1,86.3l-103.1,60.6c-2.2,1.3-5,1.3-7.2,0l-78.6-46.2v45.9c3.2,1.4,5.5,4.7,5.5,8.5
		c0,3.3-1.7,6.1-4.2,7.8l6.1,27.6c0.4,1.7-0.9,3.3-2.6,3.3h-16.9c-1.7,0-3-1.6-2.6-3.3l6.1-27.6c-2.5-1.7-4.2-4.5-4.2-7.8
		c0-3.8,2.3-7,5.5-8.5V96.3l-17.1-10c-4.7-2.7-4.7-9.5,0-12.2l103.1-60.6c2.2-1.3,5-1.3,7.2,0l103.1,60.6
		C-1543.4,76.8-1543.4,83.6-1548.1,86.3z M-1719.6,93.6c2.7,0.9,8.1,2.1,13.4,0.4c34.3-10.3,50.9-10.3,55.1-12.6
		c2.5-1.4,2-4.6,1.2-6.9c-0.6-1.7-2.3-2.8-4.3-2.8c-21.3-0.2-43.2,7.4-65.7,20.3C-1720.5,92.4-1720.3,93.3-1719.6,93.6z"/>
	<rect x="-1508.2" y="252.2" class="st2" width="144.6" height="7.5"/>
	<rect x="-1363.6" y="252.2" class="st3" width="144.6" height="7.5"/>
	<rect x="-1219" y="252.2" class="st4" width="144.6" height="7.5"/>
	<g>
		<path class="st2" d="M-1496.9,57.5c7-6.9,16-10.3,27-10.3c12.5,0,22.1,4.1,28.9,12.4l-10.4,10c-4.7-5.5-10.5-8.2-17.7-8.2
			c-6.5,0-11.8,2.1-15.9,6.3c-4,4.2-6.1,9.7-6.1,16.4c0,6.7,2,12.2,6,16.3c4,4.1,9.2,6.2,15.7,6.2c7.2,0,13.2-2.7,18.1-8l10.2,9.7
			c-6.7,8.3-16.5,12.5-29.3,12.5c-10.9,0-19.8-3.4-26.7-10.2c-6.9-6.8-10.3-15.7-10.3-26.5C-1507.4,73.2-1503.9,64.3-1496.9,57.5z"
			/>
		<path class="st2" d="M-1427.3,73.1c5.5-5.2,12.5-7.8,21.2-7.8c8.6,0,15.7,2.6,21.2,7.8c5.5,5.2,8.3,11.9,8.3,19.9
			c0,8.1-2.8,14.7-8.2,19.9c-5.6,5.2-12.6,7.9-21.2,7.9c-8.6,0-15.7-2.6-21.2-7.8c-5.5-5.2-8.3-11.9-8.3-19.9
			C-1435.6,85-1432.8,78.3-1427.3,73.1z M-1419.9,93.1c0,4.2,1.3,7.7,3.9,10.4c2.6,2.8,5.9,4.1,9.9,4.1c3.9,0,7.2-1.4,9.8-4.1
			c2.6-2.7,3.9-6.2,3.9-10.4c0-4.2-1.3-7.7-3.8-10.4c-2.6-2.7-5.8-4.1-9.8-4.1c-4,0-7.3,1.4-9.9,4.1
			C-1418.6,85.4-1419.9,88.9-1419.9,93.1z"/>
		<path class="st2" d="M-1352.1,66.1v7.4c4.1-5.4,10.1-8.2,17.8-8.2c6.7,0,12,2.2,16,6.6c3.9,4.4,5.9,10.4,5.9,17.9v30.2h-15.7V92.5
			c0-4.4-0.9-7.8-2.8-10.1c-1.9-2.3-4.6-3.5-8.2-3.5c-3.9,0-6.9,1.2-9,3.5c-2.1,2.4-3.2,5.7-3.2,10v27.6h-15.6V66.1H-1352.1z"/>
		<path class="st2" d="M-1285.7,66.1v7.4c4.1-5.4,10.1-8.2,17.8-8.2c6.7,0,12,2.2,16,6.6c3.9,4.4,5.9,10.4,5.9,17.9v30.2h-15.7V92.5
			c0-4.4-0.9-7.8-2.8-10.1c-1.9-2.3-4.6-3.5-8.2-3.5c-3.9,0-6.9,1.2-9,3.5c-2.1,2.4-3.2,5.7-3.2,10v27.6h-15.6V66.1H-1285.7z"/>
		<path class="st2" d="M-1229.5,73c5.3-5.1,12.2-7.7,20.7-7.7c8.4,0,15.2,2.6,20.4,7.8c5.2,5.2,7.8,11.9,7.8,20.2
			c0,1.5-0.1,2.9-0.3,4.3h-40.8c0.7,3.4,2.4,6.1,5,8.1c2.7,1.9,6,2.9,9.9,2.9c6,0,11.1-1.9,15.2-5.6l7.4,9.6
			c-6,5.6-13.8,8.3-23.7,8.3c-9,0-16.2-2.5-21.5-7.5c-5.4-5-8.1-11.8-8.1-20.2C-1237.5,84.9-1234.8,78.2-1229.5,73z M-1195.5,88.3
			c-0.5-3.4-2-6.1-4.4-8.2c-2.4-2-5.4-3-8.9-3c-3.6,0-6.5,1-8.9,3c-2.4,2-3.8,4.7-4.3,8.2H-1195.5z"/>
		<path class="st2" d="M-1166.6,73c5.4-5.1,12.5-7.7,21.2-7.7c5.7,0,10.7,1.2,15,3.6c4.3,2.4,7.6,5.8,9.8,10.1l-11.7,7.1
			c-3-5-7.3-7.6-12.8-7.6c-4.1,0-7.4,1.3-9.9,4c-2.6,2.7-3.8,6.2-3.8,10.6c0,4.4,1.3,7.9,3.8,10.6c2.5,2.7,5.8,4,9.7,4
			c5.7,0,10.1-2.5,13.1-7.5l11.7,6.9c-2,4.3-5.2,7.7-9.7,10.1c-4.4,2.4-9.7,3.6-15.7,3.6c-8.4,0-15.3-2.6-20.7-7.7
			c-5.4-5.1-8.1-11.8-8.1-20C-1174.8,84.8-1172.1,78.1-1166.6,73z"/>
		<path class="st2" d="M-1107.1,66.1V53.6l15.6-1.4v13.9h16.2v11.3h-16.2v24.5c0,2.3,0.6,4,1.8,5c1.2,1,3.2,1.6,6,1.6
			c2.8,0,5.6-0.4,8.3-1.2V119c-3.9,1.2-7.9,1.8-12.1,1.8c-13.1,0-19.7-6.1-19.7-18.2V77.4h-8.3V66.1H-1107.1z"/>
		<path class="st2" d="M-1507.4,181.1c0-11.1,3.5-20,10.5-26.7c7-6.8,16.1-10.1,27.5-10.1c12.7,0,22.5,4,29.4,12l-10.4,9.7
			c-4.7-5.3-10.7-8-18.1-8c-6.8,0-12.2,2.1-16.3,6.2c-4.1,4.1-6.1,9.8-6.1,16.9c0,6.9,2,12.5,6.1,16.6c4.1,4.2,9.4,6.3,16.1,6.3
			c5,0,9.4-0.8,13-2.4v-14.4h-20.9v-12h35.3V210c-7.7,5.2-17.2,7.9-28.4,7.9c-11.2,0-20.3-3.4-27.2-10.2
			C-1503.9,200.8-1507.4,192-1507.4,181.1z"/>
		<path class="st2" d="M-1423.7,170c5.3-5.1,12.2-7.7,20.7-7.7c8.4,0,15.2,2.6,20.4,7.8c5.2,5.2,7.8,11.9,7.8,20.2
			c0,1.5-0.1,2.9-0.3,4.3h-40.8c0.7,3.4,2.4,6.1,5,8.1s6,2.9,9.9,2.9c6,0,11.1-1.9,15.2-5.6l7.4,9.6c-6,5.6-13.8,8.3-23.7,8.3
			c-9,0-16.2-2.5-21.5-7.5c-5.4-5-8.1-11.8-8.1-20.2C-1431.6,181.9-1429,175.2-1423.7,170z M-1389.6,185.3c-0.5-3.4-2-6.1-4.4-8.2
			c-2.4-2-5.4-3-8.9-3c-3.6,0-6.5,1-8.9,3c-2.4,2-3.8,4.7-4.3,8.2H-1389.6z"/>
		<path class="st2" d="M-1350.8,163.2v9c3.5-6.6,9.7-9.9,18.5-9.9v14.3h-3.2c-5,0-8.7,1.2-11.1,3.7c-2.4,2.5-3.6,6.2-3.6,11.4v25.4
			h-15.6v-53.9H-1350.8z"/>
		<path class="st2" d="M-1308.4,163.1v7.2c4-5.3,9.7-8,17.1-8c7.7,0,13.5,3,17.3,8.9c4.7-6,11.2-8.9,19.6-8.9
			c6.9,0,12.3,2.2,16.3,6.6c4,4.4,6,10.4,6,17.9v30.2h-15.6v-27.6c0-4.4-0.9-7.8-2.7-10.1c-1.8-2.3-4.4-3.5-7.7-3.5
			c-3.8,0-6.6,1.2-8.7,3.5c-2,2.4-3.1,5.7-3.1,10v27.6h-15.7v-27.6c0-4.4-0.9-7.8-2.7-10.1c-1.8-2.3-4.4-3.5-7.9-3.5
			c-3.7,0-6.5,1.2-8.5,3.5c-2,2.4-3,5.7-3,10v27.6h-15.6v-53.9H-1308.4z"/>
		<path class="st2" d="M-1222.8,202.4c0-7.1,3.2-11.8,9.7-14.1c4.2-1.4,11-2.7,20.4-3.7c2.1-0.2,3.6-0.5,4.3-1.1
			c0.7-0.5,1.1-1.4,1.1-2.6c0-1.9-0.8-3.5-2.4-4.6c-1.6-1.1-3.8-1.6-6.5-1.6c-5.2,0-9.3,2.2-12.1,6.7l-10.5-6.9
			c2.2-3.8,5.3-6.8,9.4-9c4.1-2.2,8.7-3.3,13.8-3.3c7.7,0,13.6,2,17.8,6c4.2,4,6.3,9.7,6.3,17.1v31.6h-14.7v-6.8
			c-3.1,5-8.8,7.6-17.1,7.6c-6.2,0-11-1.4-14.4-4.1C-1221.1,211-1222.8,207.2-1222.8,202.4z M-1199.3,207.3c8,0,12-4.3,12-13v-1.6
			c-1.2,0.2-3.2,0.5-5.8,0.8c-2.6,0.3-4.5,0.6-5.8,0.8c-2.7,0.3-4.5,0.8-5.6,1.5c-2.1,1.1-3.1,2.9-3.1,5.5
			C-1207.6,205.2-1204.8,207.3-1199.3,207.3z"/>
		<path class="st2" d="M-1144.8,163.1v7.4c4.1-5.4,10.1-8.2,17.8-8.2c6.7,0,12,2.2,16,6.6c3.9,4.4,5.9,10.4,5.9,17.9v30.2h-15.7
			v-27.6c0-4.4-0.9-7.8-2.8-10.1c-1.9-2.3-4.6-3.5-8.2-3.5c-3.9,0-6.9,1.2-9,3.5c-2.1,2.4-3.2,5.7-3.2,10v27.6h-15.6v-53.9H-1144.8z
			"/>
		<path class="st2" d="M-1101.2,222.4c3.7,1.7,7.7,2.5,11.9,2.5c5.2,0,8.9-2.3,11.1-6.8l0.1-0.1l-23.1-54.9h16.4l14.7,40.5
			l15.1-40.5h15.2l-23.3,55.2c-2.9,7-6.2,11.9-9.8,14.7c-3.7,2.8-8.4,4.2-14.2,4.2c-5.4,0-10.1-0.9-14.2-2.7V222.4z"/>
	</g>
</g>
<g>
	<path class="st5" d="M-923.3,137.9l-21.8-12.8c-1.9,6-2.8,12.3-2.8,18.8c0,35,63.4,120.1,63.4,120.1s63.4-85,63.4-120.1
		c0-6.6-1-12.9-2.8-18.8l-21.8,12.8c0.3,2,0.5,4,0.5,6c0,21.7-17.5,39.2-39.2,39.2c-21.6,0-39.2-17.5-39.2-39.2
		C-923.7,141.8-923.6,139.8-923.3,137.9z"/>
	<path class="st5" d="M-777.8,86.3l-103.1,60.6c-2.2,1.3-5,1.3-7.2,0l-78.6-46.2v45.9c3.2,1.4,5.5,4.7,5.5,8.5
		c0,3.3-1.7,6.1-4.2,7.8l6.1,27.6c0.4,1.7-0.9,3.3-2.6,3.3h-16.9c-1.7,0-3-1.6-2.6-3.3l6.1-27.6c-2.5-1.7-4.2-4.5-4.2-7.8
		c0-3.8,2.3-7,5.5-8.5V96.3l-17.1-10c-4.7-2.7-4.7-9.5,0-12.2l103.1-60.6c2.2-1.3,5-1.3,7.2,0l103.1,60.6
		C-773.1,76.8-773.1,83.6-777.8,86.3z M-949.3,93.6c2.7,0.9,8.1,2.1,13.4,0.4c34.3-10.3,50.9-10.3,55.1-12.6c2.5-1.4,2-4.6,1.2-6.9
		c-0.6-1.7-2.3-2.8-4.3-2.8c-21.3-0.2-43.2,7.4-65.7,20.3C-950.2,92.4-950.1,93.3-949.3,93.6z"/>
	<rect x="-737.9" y="252.2" class="st2" width="144.6" height="7.5"/>
	<rect x="-593.3" y="252.2" class="st3" width="144.6" height="7.5"/>
	<rect x="-448.7" y="252.2" class="st4" width="144.6" height="7.5"/>
	<g>
		<path class="st2" d="M-726.6,57.5c7-6.9,16-10.3,27-10.3c12.5,0,22.1,4.1,28.9,12.4l-10.4,10c-4.7-5.5-10.5-8.2-17.7-8.2
			c-6.5,0-11.8,2.1-15.9,6.3c-4,4.2-6.1,9.7-6.1,16.4c0,6.7,2,12.2,6,16.3c4,4.1,9.2,6.2,15.7,6.2c7.2,0,13.2-2.7,18.1-8l10.2,9.7
			c-6.7,8.3-16.5,12.5-29.3,12.5c-10.9,0-19.8-3.4-26.7-10.2c-6.9-6.8-10.3-15.7-10.3-26.5C-737.1,73.2-733.6,64.3-726.6,57.5z"/>
		<path class="st2" d="M-657,73.1c5.5-5.2,12.5-7.8,21.2-7.8c8.6,0,15.7,2.6,21.2,7.8c5.5,5.2,8.3,11.9,8.3,19.9
			c0,8.1-2.8,14.7-8.2,19.9c-5.6,5.2-12.6,7.9-21.2,7.9c-8.6,0-15.7-2.6-21.2-7.8c-5.5-5.2-8.3-11.9-8.3-19.9
			C-665.3,85-662.5,78.3-657,73.1z M-649.6,93.1c0,4.2,1.3,7.7,3.9,10.4c2.6,2.8,5.9,4.1,9.9,4.1c3.9,0,7.2-1.4,9.8-4.1
			c2.6-2.7,3.9-6.2,3.9-10.4c0-4.2-1.3-7.7-3.8-10.4c-2.6-2.7-5.8-4.1-9.8-4.1c-4,0-7.3,1.4-9.9,4.1
			C-648.3,85.4-649.6,88.9-649.6,93.1z"/>
		<path class="st2" d="M-581.8,66.1v7.4c4.1-5.4,10.1-8.2,17.8-8.2c6.7,0,12,2.2,16,6.6c3.9,4.4,5.9,10.4,5.9,17.9v30.2h-15.7V92.5
			c0-4.4-0.9-7.8-2.8-10.1c-1.9-2.3-4.6-3.5-8.2-3.5c-3.9,0-6.9,1.2-9,3.5c-2.1,2.4-3.2,5.7-3.2,10v27.6h-15.6V66.1H-581.8z"/>
		<path class="st2" d="M-515.4,66.1v7.4c4.1-5.4,10.1-8.2,17.8-8.2c6.7,0,12,2.2,16,6.6c3.9,4.4,5.9,10.4,5.9,17.9v30.2h-15.7V92.5
			c0-4.4-0.9-7.8-2.8-10.1c-1.9-2.3-4.6-3.5-8.2-3.5c-3.9,0-6.9,1.2-9,3.5c-2.1,2.4-3.2,5.7-3.2,10v27.6h-15.6V66.1H-515.4z"/>
		<path class="st2" d="M-459.2,73c5.3-5.1,12.2-7.7,20.7-7.7c8.4,0,15.2,2.6,20.4,7.8c5.2,5.2,7.8,11.9,7.8,20.2
			c0,1.5-0.1,2.9-0.3,4.3h-40.8c0.7,3.4,2.4,6.1,5,8.1c2.7,1.9,6,2.9,9.9,2.9c6,0,11.1-1.9,15.2-5.6l7.4,9.6
			c-6,5.6-13.8,8.3-23.7,8.3c-9,0-16.2-2.5-21.5-7.5c-5.4-5-8.1-11.8-8.1-20.2C-467.2,84.9-464.5,78.2-459.2,73z M-425.2,88.3
			c-0.5-3.4-2-6.1-4.4-8.2c-2.4-2-5.4-3-8.9-3c-3.6,0-6.5,1-8.9,3c-2.4,2-3.8,4.7-4.3,8.2H-425.2z"/>
		<path class="st2" d="M-396.3,73c5.4-5.1,12.5-7.7,21.2-7.7c5.7,0,10.7,1.2,15,3.6c4.3,2.4,7.6,5.8,9.8,10.1l-11.7,7.1
			c-3-5-7.3-7.6-12.8-7.6c-4.1,0-7.4,1.3-9.9,4c-2.6,2.7-3.8,6.2-3.8,10.6c0,4.4,1.3,7.9,3.8,10.6c2.5,2.7,5.8,4,9.7,4
			c5.7,0,10.1-2.5,13.1-7.5l11.7,6.9c-2,4.3-5.2,7.7-9.7,10.1c-4.4,2.4-9.7,3.6-15.7,3.6c-8.4,0-15.3-2.6-20.7-7.7
			c-5.4-5.1-8.1-11.8-8.1-20C-404.5,84.8-401.8,78.1-396.3,73z"/>
		<path class="st2" d="M-336.8,66.1V53.6l15.6-1.4v13.9h16.2v11.3h-16.2v24.5c0,2.3,0.6,4,1.8,5c1.2,1,3.2,1.6,6,1.6
			c2.8,0,5.6-0.4,8.3-1.2V119c-3.9,1.2-7.9,1.8-12.1,1.8c-13.1,0-19.7-6.1-19.7-18.2V77.4h-8.3V66.1H-336.8z"/>
		<path class="st2" d="M-737.1,181.1c0-11.1,3.5-20,10.5-26.7c7-6.8,16.1-10.1,27.5-10.1c12.7,0,22.5,4,29.4,12l-10.4,9.7
			c-4.7-5.3-10.7-8-18.1-8c-6.8,0-12.2,2.1-16.3,6.2c-4.1,4.1-6.1,9.8-6.1,16.9c0,6.9,2,12.5,6.1,16.6c4.1,4.2,9.4,6.3,16.1,6.3
			c5,0,9.4-0.8,13-2.4v-14.4h-20.9v-12h35.3V210c-7.7,5.2-17.2,7.9-28.4,7.9c-11.2,0-20.3-3.4-27.2-10.2
			C-733.6,200.8-737.1,192-737.1,181.1z"/>
		<path class="st2" d="M-653.4,170c5.3-5.1,12.2-7.7,20.7-7.7c8.4,0,15.2,2.6,20.4,7.8c5.2,5.2,7.8,11.9,7.8,20.2
			c0,1.5-0.1,2.9-0.3,4.3h-40.8c0.7,3.4,2.4,6.1,5,8.1s6,2.9,9.9,2.9c6,0,11.1-1.9,15.2-5.6l7.4,9.6c-6,5.6-13.8,8.3-23.7,8.3
			c-9,0-16.2-2.5-21.5-7.5c-5.4-5-8.1-11.8-8.1-20.2C-661.3,181.9-658.7,175.2-653.4,170z M-619.3,185.3c-0.5-3.4-2-6.1-4.4-8.2
			c-2.4-2-5.4-3-8.9-3c-3.6,0-6.5,1-8.9,3c-2.4,2-3.8,4.7-4.3,8.2H-619.3z"/>
		<path class="st2" d="M-580.5,163.2v9c3.5-6.6,9.7-9.9,18.5-9.9v14.3h-3.2c-5,0-8.7,1.2-11.1,3.7c-2.4,2.5-3.6,6.2-3.6,11.4v25.4
			h-15.6v-53.9H-580.5z"/>
		<path class="st2" d="M-538.1,163.1v7.2c4-5.3,9.7-8,17.1-8c7.7,0,13.5,3,17.3,8.9c4.7-6,11.2-8.9,19.6-8.9
			c6.9,0,12.3,2.2,16.3,6.6c4,4.4,6,10.4,6,17.9v30.2h-15.6v-27.6c0-4.4-0.9-7.8-2.7-10.1c-1.8-2.3-4.4-3.5-7.7-3.5
			c-3.8,0-6.6,1.2-8.7,3.5c-2,2.4-3.1,5.7-3.1,10v27.6h-15.7v-27.6c0-4.4-0.9-7.8-2.7-10.1c-1.8-2.3-4.4-3.5-7.9-3.5
			c-3.7,0-6.5,1.2-8.5,3.5c-2,2.4-3,5.7-3,10v27.6H-553v-53.9H-538.1z"/>
		<path class="st2" d="M-452.5,202.4c0-7.1,3.2-11.8,9.7-14.1c4.2-1.4,11-2.7,20.4-3.7c2.1-0.2,3.6-0.5,4.3-1.1
			c0.7-0.5,1.1-1.4,1.1-2.6c0-1.9-0.8-3.5-2.4-4.6c-1.6-1.1-3.8-1.6-6.5-1.6c-5.2,0-9.3,2.2-12.1,6.7l-10.5-6.9
			c2.2-3.8,5.3-6.8,9.4-9c4.1-2.2,8.7-3.3,13.8-3.3c7.7,0,13.6,2,17.8,6c4.2,4,6.3,9.7,6.3,17.1v31.6H-416v-6.8
			c-3.1,5-8.8,7.6-17.1,7.6c-6.2,0-11-1.4-14.4-4.1C-450.8,211-452.5,207.2-452.5,202.4z M-429,207.3c8,0,12-4.3,12-13v-1.6
			c-1.2,0.2-3.2,0.5-5.8,0.8c-2.6,0.3-4.5,0.6-5.8,0.8c-2.7,0.3-4.5,0.8-5.6,1.5c-2.1,1.1-3.1,2.9-3.1,5.5
			C-437.3,205.2-434.5,207.3-429,207.3z"/>
		<path class="st2" d="M-374.5,163.1v7.4c4.1-5.4,10.1-8.2,17.8-8.2c6.7,0,12,2.2,16,6.6c3.9,4.4,5.9,10.4,5.9,17.9v30.2h-15.7
			v-27.6c0-4.4-0.9-7.8-2.8-10.1c-1.9-2.3-4.6-3.5-8.2-3.5c-3.9,0-6.9,1.2-9,3.5c-2.1,2.4-3.2,5.7-3.2,10v27.6h-15.6v-53.9H-374.5z"
			/>
		<path class="st2" d="M-331,222.4c3.7,1.7,7.7,2.5,11.9,2.5c5.2,0,8.9-2.3,11.1-6.8l0.1-0.1l-23.1-54.9h16.4l14.7,40.5l15.1-40.5
			h15.2l-23.3,55.2c-2.9,7-6.2,11.9-9.8,14.7c-3.7,2.8-8.4,4.2-14.2,4.2c-5.4,0-10.1-0.9-14.2-2.7V222.4z"/>
	</g>
</g>
<text transform="matrix(1 0 0 1 -2181.9641 -600.0159)"><tspan x="0" y="0" class="st2" style="font-family:'Shoika-SemiBold'; font-size:97.0276px;">Connect</tspan><tspan x="0" y="97" class="st2" style="font-family:'Shoika-SemiBold'; font-size:97.0276px;">Germany</tspan></text>
<g>
	<path class="st1" d="M99.4,137.9L77.6,125c-1.9,6-2.8,12.3-2.8,18.8c0,35,63.4,120.1,63.4,120.1s63.4-85,63.4-120.1
		c0-6.6-1-12.9-2.8-18.8L177,137.9c0.3,2,0.5,4,0.5,6c0,21.7-17.5,39.2-39.2,39.2c-21.6,0-39.2-17.5-39.2-39.2
		C99,141.8,99.1,139.8,99.4,137.9z"/>
	<path class="st1" d="M244.9,86.3l-103.1,60.6c-2.2,1.3-5,1.3-7.2,0l-78.6-46.2v45.9c3.2,1.4,5.5,4.7,5.5,8.5c0,3.3-1.7,6.1-4.2,7.8
		l6.1,27.6c0.4,1.7-0.9,3.3-2.6,3.3H43.8c-1.7,0-3-1.6-2.6-3.3l6.1-27.6c-2.5-1.7-4.2-4.5-4.2-7.8c0-3.8,2.3-7,5.5-8.5V96.3
		l-17.1-10c-4.7-2.7-4.7-9.5,0-12.2l103.1-60.6c2.2-1.3,5-1.3,7.2,0l103.1,60.6C249.6,76.8,249.6,83.6,244.9,86.3z M73.4,93.6
		c2.7,0.9,8.1,2.1,13.4,0.4c34.3-10.3,50.9-10.3,55.1-12.6c2.5-1.4,2-4.6,1.2-6.9c-0.6-1.7-2.3-2.8-4.3-2.8
		c-21.3-0.2-43.2,7.4-65.7,20.3C72.6,92.4,72.7,93.3,73.4,93.6z"/>
</g>
</svg>
